<svg width="52" height="52" viewBox="0 0 52 52" fill="none" xmlns="http://www.w3.org/2000/svg">
<path d="M38.8234 31.0269C38.2623 31.5707 38.0044 32.3572 38.1323 33.1285L40.0584 43.7885C40.2209 44.692 39.8396 45.6064 39.0834 46.1285C38.3424 46.6702 37.3566 46.7352 36.5484 46.3019L26.9523 41.2969C26.6186 41.1192 26.2481 41.0239 25.8689 41.013H25.2818C25.0781 41.0434 24.8788 41.1084 24.6968 41.208L15.0984 46.2369C14.6239 46.4752 14.0866 46.5597 13.5601 46.4752C12.2774 46.2325 11.4216 45.0105 11.6318 43.7214L13.5601 33.0614C13.6879 32.2835 13.4301 31.4927 12.8689 30.9402L5.04508 23.3569C4.39075 22.722 4.16325 21.7687 4.46225 20.9085C4.75258 20.0505 5.49358 19.4244 6.38842 19.2835L17.1568 17.7214C17.9758 17.6369 18.6951 17.1385 19.0634 16.4019L23.8084 6.67354C23.9211 6.45687 24.0663 6.25754 24.2418 6.08854L24.4368 5.93687C24.5386 5.8242 24.6556 5.73104 24.7856 5.6552L25.0218 5.56854L25.3901 5.41687H26.3023C27.1169 5.50137 27.8341 5.98887 28.2089 6.71687L33.0168 16.4019C33.3634 17.1104 34.0373 17.6022 34.8151 17.7214L45.5834 19.2835C46.4934 19.4135 47.2539 20.0419 47.5551 20.9085C47.8389 21.7774 47.5941 22.7307 46.9268 23.3569L38.8234 31.0269Z" fill="#0D10FF"/>
</svg>
