<svg width="53" height="52" viewBox="0 0 53 52" fill="none" xmlns="http://www.w3.org/2000/svg">
<path opacity="0.4" d="M28.7821 6.74618L33.6061 16.4404C33.9616 17.1428 34.6399 17.6306 35.4222 17.7389L46.2579 19.3171C46.8907 19.406 47.465 19.7398 47.8529 20.2492C48.2365 20.7521 48.4012 21.3895 48.308 22.0159C48.2321 22.5362 47.9872 23.0175 47.6123 23.386L39.7608 30.997C39.1865 31.5281 38.9265 32.315 39.0652 33.0846L40.9982 43.7847C41.2041 45.0767 40.3481 46.295 39.0652 46.5399C38.5364 46.6245 37.9946 46.5356 37.5178 46.2928L27.8524 41.2571C27.1351 40.895 26.2877 40.895 25.5704 41.2571L15.905 46.2928C14.7174 46.9236 13.2459 46.4944 12.585 45.3238C12.3401 44.8577 12.2534 44.3266 12.3336 43.8085L14.2667 33.1063C14.4054 32.3389 14.1431 31.5476 13.571 31.0165L5.71949 23.4098C4.78546 22.508 4.75729 21.0231 5.65664 20.0888C5.67615 20.0693 5.69782 20.0476 5.71949 20.0259C6.09224 19.6466 6.58201 19.406 7.11079 19.3431L17.9464 17.7628C18.7266 17.6522 19.4049 17.1688 19.7625 16.4621L24.4132 6.74618C24.8271 5.91376 25.6853 5.39566 26.6171 5.41734H26.9075C27.7159 5.51489 28.4202 6.01565 28.7821 6.74618" fill="#0D10FF"/>
<path d="M26.6495 40.9871C26.2298 41.0001 25.8209 41.1129 25.4532 41.3145L15.835 46.3388C14.6582 46.9005 13.2498 46.4646 12.59 45.3392C12.3456 44.8795 12.2569 44.3525 12.3391 43.8364L14.2601 33.1568C14.3899 32.3805 14.1303 31.5912 13.5657 31.0448L5.71065 23.4401C4.77826 22.5271 4.76095 21.0287 5.67388 20.0941C5.68686 20.0811 5.69767 20.0703 5.71065 20.0594C6.08274 19.6908 6.563 19.4479 7.08004 19.372L17.9248 17.7761C18.7101 17.6763 19.3915 17.1863 19.7377 16.475L24.4515 6.63678C24.8994 5.84313 25.7582 5.3704 26.6668 5.42028C26.6495 6.06431 26.6495 40.5491 26.6495 40.9871" fill="#0D10FF"/>
</svg>
